<svg xmlns="http://www.w3.org/2000/svg" width="16" height="16" viewBox="0 0 16 16" fill="none">
  <path d="M12.7588 13.4615L8.57167 9.27417C8.23833 9.54939 7.855 9.76478 7.42167 9.92033C6.98833 10.0759 6.54006 10.1537 6.07683 10.1537C4.93739 10.1537 3.97306 9.75917 3.18383 8.97017C2.39461 8.18117 2 7.21706 2 6.07783C2 4.93872 2.3945 3.97428 3.1835 3.1845C3.9725 2.39483 4.93661 2 6.07583 2C7.21494 2 8.17939 2.39461 8.96917 3.18383C9.75883 3.97306 10.1537 4.93739 10.1537 6.07683C10.1537 6.55294 10.0738 7.00767 9.914 7.441C9.75411 7.87433 9.54083 8.25122 9.27417 8.57167L13.4613 12.7588L12.7588 13.4615ZM6.07683 9.15383C6.93583 9.15383 7.66339 8.85572 8.2595 8.2595C8.85572 7.66339 9.15383 6.93583 9.15383 6.07683C9.15383 5.21783 8.85572 4.49028 8.2595 3.89417C7.66339 3.29794 6.93583 2.99983 6.07683 2.99983C5.21783 2.99983 4.49028 3.29794 3.89417 3.89417C3.29794 4.49028 2.99983 5.21783 2.99983 6.07683C2.99983 6.93583 3.29794 7.66339 3.89417 8.2595C4.49028 8.85572 5.21783 9.15383 6.07683 9.15383Z" fill="#EEEEEE"/>
</svg>